<?xml version="1.0" encoding="UTF-8"?>
<svg xmlns="http://www.w3.org/2000/svg" xmlns:xlink="http://www.w3.org/1999/xlink" viewBox="0 0 26 26" width="26px" height="26px">
<g id="surface206103626">
<path style=" stroke:none;fill-rule:nonzero;fill:rgb(0%,0%,0%);fill-opacity:1;" d="M 12.980469 0.574219 C 12.871094 0.578125 12.765625 0.613281 12.679688 0.679688 L 0.722656 9.988281 C 0.566406 10.101562 0.484375 10.289062 0.507812 10.476562 C 0.53125 10.664062 0.65625 10.828125 0.835938 10.894531 C 1.011719 10.964844 1.214844 10.933594 1.359375 10.808594 L 2.078125 10.25 L 2.078125 23.921875 C 2.078125 24.207031 2.3125 24.441406 2.601562 24.441406 L 9.792969 24.441406 C 9.847656 24.449219 9.90625 24.449219 9.960938 24.441406 L 16.03125 24.441406 C 16.089844 24.449219 16.144531 24.449219 16.203125 24.441406 L 23.398438 24.441406 C 23.6875 24.441406 23.921875 24.207031 23.921875 23.921875 L 23.921875 10.25 L 24.640625 10.808594 C 24.785156 10.933594 24.988281 10.964844 25.164062 10.894531 C 25.34375 10.828125 25.46875 10.664062 25.492188 10.476562 C 25.515625 10.289062 25.433594 10.101562 25.277344 9.988281 L 21.304688 6.894531 C 21.316406 6.851562 21.320312 6.804688 21.320312 6.761719 L 21.320312 3.640625 C 21.320312 3.351562 21.085938 3.121094 20.800781 3.121094 L 18.773438 3.121094 C 18.484375 3.121094 18.25 3.351562 18.25 3.640625 L 18.25 4.519531 L 13.320312 0.679688 C 13.222656 0.605469 13.101562 0.566406 12.980469 0.574219 Z M 13 1.75 L 22.878906 9.441406 L 22.878906 23.398438 L 16.640625 23.398438 L 16.640625 14.039062 C 16.640625 13.753906 16.40625 13.519531 16.121094 13.519531 L 9.878906 13.519531 C 9.726562 13.519531 9.582031 13.585938 9.480469 13.699219 C 9.378906 13.816406 9.335938 13.972656 9.359375 14.121094 L 9.359375 23.398438 L 3.121094 23.398438 L 3.121094 9.441406 Z M 19.292969 4.160156 L 20.28125 4.160156 L 20.28125 6.097656 L 19.292969 5.328125 Z M 10.398438 14.558594 L 15.601562 14.558594 L 15.601562 23.398438 L 10.398438 23.398438 Z M 10.398438 14.558594 "/>
</g>
</svg>
